<svg xmlns="http://www.w3.org/2000/svg" viewBox="0 0 25.41 26.76">
  <defs>
    <style>.cls-1{fill:#424242;}.cls-2{fill:#e0e0e0;}.cls-3{fill:#003dff;}</style>
  </defs>
  <title>logo</title>
  <path class="cls-1" d="M7.3,9.71a2.85,2.85,0,0,0,2.85,2.85h19.7a2.85,2.85,0,1,0,0-5.7H10.15A2.85,2.85,0,0,0,7.3,9.71h0Z" transform="translate(-7.3 -6.86)"/>
  <path class="cls-2" d="M7.3,20.48a2.37,2.37,0,0,0,2.37,2.37H20a2.37,2.37,0,0,0,0-4.74H9.67A2.37,2.37,0,0,0,7.3,20.48h0Z" transform="translate(-7.3 -6.86)"/>
  <path class="cls-3" d="M7.3,31.25a2.37,2.37,0,0,0,2.37,2.37H20a2.37,2.37,0,0,0,0-4.74H9.67A2.37,2.37,0,0,0,7.3,31.25h0Z" transform="translate(-7.3 -6.86)"/>
</svg>